<!-- Created with Inkscape (http://www.inkscape.org/) -->
<svg xmlns:rdf="http://www.w3.org/1999/02/22-rdf-syntax-ns#" xmlns="http://www.w3.org/2000/svg" height="64px" width="64px" version="1.1" xmlns:cc="http://creativecommons.org/ns#" xmlns:xlink="http://www.w3.org/1999/xlink" xmlns:dc="http://purl.org/dc/elements/1.1/">
<metadata>
<rdf:RDF>
<cc:Work rdf:about="">
<dc:format>image/svg+xml</dc:format>
<dc:type rdf:resource="http://purl.org/dc/dcmitype/StillImage"/>
<dc:title/>
</cc:Work>
</rdf:RDF>
</metadata>
<rect ry="8" height="64" width="64" y="0" x="0" fill="#808080"/>
<path fill="#FFF" d="M10,56,16,52,12,52,12,8,8,8,8,52,4,52z"/>
<path id="path6521" d="m39,12-3-3,0,2-4,0,0,2,4,0,0,2z" fill="#FFF"/>
<use xlink:href="#path6521" transform="translate(0,10)" height="64" width="64" y="0" x="0"/>
<use xlink:href="#path6521" transform="translate(0,20)" height="64" width="64" y="0" x="0"/>
<use xlink:href="#path6521" transform="translate(0,30)" height="64" width="64" y="0" x="0"/>
<use xlink:href="#path6521" transform="translate(0,40)" height="64" width="64" y="0" x="0"/>
<path id="rect6441" fill="#FFF" d="m20,8c-1.11,0-2,0.892-2,2v4c0,1.11,0.892,2,2,2h8c1.11,0,2-0.892,2-2v-4c0-1.11-0.9-2-2-2h-8zm5,1,3,3-3,3,0-2-4,0,0-2,4,0,0-2z"/>
<use id="use6453" xlink:href="#rect6441" transform="translate(0,10)" height="64" width="64" y="0" x="0"/>
<use xlink:href="#use6453" transform="translate(0,10)" height="64" width="64" y="0" x="0"/>
<use xlink:href="#rect6441" transform="translate(0,30)" height="64" width="64" y="0" x="0"/>
<use xlink:href="#rect6441" transform="translate(0,40)" height="64" width="64" y="0" x="0"/>
<path id="use6459-1" fill="#FFF" d="m42,8c-1.11,0-2,0.892-2,2v4c0,1.11,0.892,2,2,2h8c1.11,0,2-0.892,2-2v-4c0-1.11-0.892-2-2-2h-8zm4,0.781,1.12,0,0,6.44-1.38,0,0-3.72,0-0.281c0.0029-0.108-0.0029-0.229,0-0.344,0.0059-0.117,0.0283-0.227,0.0312-0.344,0.0059-0.117-0.0029-0.216,0-0.312-0.0146,0.0176-0.0274,0.0274-0.0625,0.0625l-0.125,0.125c-0.044,0.041-0.0781,0.0811-0.125,0.125-0.0469,0.044-0.112,0.0898-0.156,0.125l-0.719,0.594-0.656-0.812,2.06-1.66z"/>
<use xlink:href="#use6459-1" transform="translate(-1.0463257e-6,9.999999)" height="64" width="64" y="0" x="0"/>
<use xlink:href="#use6459-1" transform="translate(-1.0463257e-6,30)" height="64" width="64" y="0" x="0"/>
<text id="text9235" style="letter-spacing:0px;text-anchor:middle;word-spacing:0px;text-align:center;" font-weight="bold" xml:space="preserve" font-size="11px" font-style="normal" font-stretch="normal" font-variant="normal" y="36" x="46" font-family="Droid Sans" line-height="125%" fill="#ffffff"><tspan x="46" y="36">0</tspan></text>
<use xlink:href="#text9235" transform="translate(-4.6325681e-8,20)" height="64" width="64" y="0" x="0"/>
</svg>
