<!-- Created with Inkscape (http://www.inkscape.org/) -->
<svg xmlns:rdf="http://www.w3.org/1999/02/22-rdf-syntax-ns#" xmlns="http://www.w3.org/2000/svg" height="64px" width="64px" version="1.1" xmlns:cc="http://creativecommons.org/ns#" xmlns:xlink="http://www.w3.org/1999/xlink" xmlns:dc="http://purl.org/dc/elements/1.1/">
<metadata>
<rdf:RDF>
<cc:Work rdf:about="">
<dc:format>image/svg+xml</dc:format>
<dc:type rdf:resource="http://purl.org/dc/dcmitype/StillImage"/>
<dc:title/>
</cc:Work>
</rdf:RDF>
</metadata>
<rect ry="8" height="64" width="64" y="0" x="0" fill="#808080"/>
<path fill="#FFF" d="M10,56,16,52,12,52,12,8,8,8,8,52,4,52z"/>
<path id="path6521" d="m39,12-3-3,0,2-4,0,0,2,4,0,0,2z" fill="#FFF"/>
<use xlink:href="#path6521" transform="translate(0,10)" height="64" width="64" y="0" x="0"/>
<use xlink:href="#path6521" transform="translate(0,20)" height="64" width="64" y="0" x="0"/>
<use xlink:href="#path6521" transform="translate(0,30)" height="64" width="64" y="0" x="0"/>
<use xlink:href="#path6521" transform="translate(0,40)" height="64" width="64" y="0" x="0"/>
<rect id="use6459" ry="2" height="8" width="8" y="8" x="40" fill="#FFF"/>
<use id="use7890" xlink:href="#use6459" transform="translate(10,0)" height="64" width="64" y="0" x="0"/>
<use xlink:href="#use6459" transform="translate(0,10)" height="64" width="64" y="0" x="0"/>
<use xlink:href="#use7890" transform="translate(0,10)" height="64" width="64" y="0" x="0"/>
<use xlink:href="#use6459" transform="translate(0,30)" height="64" width="64" y="0" x="0"/>
<use xlink:href="#use7890" transform="translate(0,30)" height="64" width="64" y="0" x="0"/>
<path id="use6459-1" fill="#FFF" d="M20,8c-1.1,0-2,0.89-2,2v4c0,1.1,0.9,2,2,2h8c1.1,0,2-0.9,2-2v-4c0-1.11-0.9-2-2-2h-8zm4,0.78h1.1v6.42h-1.3v-3.7-0.3c0-0.1-0.1-0.2,0-0.3v-0.4-0.3l-0.1,0.1-0.1,0.1c-0.1,0-0.1,0.1-0.1,0.1-0.1,0.1-0.1,0.1-0.2,0.2l-0.7,0.5-0.7-0.8,2.1-1.62z"/>
<use xlink:href="#use6459-1" transform="translate(-4.7683716e-7,9.9999988)" height="64" width="64" y="0" x="0"/>
<use xlink:href="#use6459-1" transform="translate(-4.7683716e-7,30)" height="64" width="64" y="0" x="0"/>
<rect id="rect4892" y="29" ry="1" height="6" width="6" stroke="#FFF" stroke-dasharray="none" x="41" stroke-miterlimit="4" stroke-width="2" fill="none"/>
<use id="use4894" xlink:href="#rect4892" transform="translate(10,0)" height="64" width="64" y="0" x="0"/>
<use xlink:href="#rect4892" transform="translate(0,20)" height="64" width="64" y="0" x="0"/>
<use xlink:href="#use4894" transform="translate(0,20)" height="64" width="64" y="0" x="0"/>
<text id="text9235" style="letter-spacing:0px;text-anchor:middle;word-spacing:0px;text-align:center;" font-weight="bold" xml:space="preserve" font-size="11px" font-style="normal" font-stretch="normal" font-variant="normal" y="36" x="24" font-family="Droid Sans" line-height="125%" fill="#ffffff"><tspan x="24" y="36">0</tspan></text>
<use xlink:href="#text9235" transform="translate(0,20)" height="64" width="64" y="0" x="0"/>
</svg>
