<!-- Created with Inkscape (http://www.inkscape.org/) -->
<svg xmlns:rdf="http://www.w3.org/1999/02/22-rdf-syntax-ns#" xmlns="http://www.w3.org/2000/svg" height="64px" width="64px" version="1.1" xmlns:cc="http://creativecommons.org/ns#" xmlns:xlink="http://www.w3.org/1999/xlink" xmlns:dc="http://purl.org/dc/elements/1.1/">
<metadata>
<rdf:RDF>
<cc:Work rdf:about="">
<dc:format>image/svg+xml</dc:format>
<dc:type rdf:resource="http://purl.org/dc/dcmitype/StillImage"/>
<dc:title/>
</cc:Work>
</rdf:RDF>
</metadata>
<rect ry="8" height="64" width="64" y="0" x="0" fill="#808080"/>
<text style="letter-spacing:0px;text-anchor:middle;word-spacing:0px;text-align:center;" font-weight="normal" xml:space="preserve" font-size="20px" font-style="normal" font-stretch="normal" font-variant="normal" y="17" x="36" font-family="Droid Sans" line-height="125%" fill="#ffffff"><tspan x="36" y="17">ğ’‡()</tspan></text>
<text style="letter-spacing:0px;text-anchor:middle;word-spacing:0px;text-align:center;" font-weight="normal" xml:space="preserve" transform="matrix(0,1,-1,0,0,0)" font-style="normal" font-stretch="normal" font-size="32px" font-variant="normal" y="-27.109375" x="26" font-family="Droid Sans" line-height="125%" fill="#ffffff"><tspan x="26" y="-27.109375">{</tspan></text>
<rect id="use6459" ry="2" height="8" width="8" y="32" x="22" fill="#FFF"/>
<use id="use7890" xlink:href="#use6459" transform="translate(10,0)" height="64" width="64" y="0" x="0"/>
<use id="use7900" xlink:href="#use7890" transform="translate(10,0)" height="64" width="64" y="0" x="0"/>
<use xlink:href="#use6459" transform="translate(0,10)" height="64" width="64" y="0" x="0"/>
<use xlink:href="#use7890" transform="translate(0,10)" height="64" width="64" y="0" x="0"/>
<use xlink:href="#use7900" transform="translate(0,10)" height="64" width="64" y="0" x="0"/>
<use xlink:href="#use6459" transform="translate(0,20)" height="64" width="64" y="0" x="0"/>
<use xlink:href="#use7890" transform="translate(0,20)" height="64" width="64" y="0" x="0"/>
<use xlink:href="#use7900" transform="translate(0,20)" height="64" width="64" y="0" x="0"/>
<path fill="#FFF" d="m14,60,6-4-4,0,0-24-4,0,0,24-4,0z"/>
</svg>
