<!-- Created with Inkscape (http://www.inkscape.org/) -->
<svg xmlns:rdf="http://www.w3.org/1999/02/22-rdf-syntax-ns#" xmlns="http://www.w3.org/2000/svg" height="64px" width="64px" version="1.1" xmlns:cc="http://creativecommons.org/ns#" xmlns:xlink="http://www.w3.org/1999/xlink" xmlns:dc="http://purl.org/dc/elements/1.1/">
<metadata>
<rdf:RDF>
<cc:Work rdf:about="">
<dc:format>image/svg+xml</dc:format>
<dc:type rdf:resource="http://purl.org/dc/dcmitype/StillImage"/>
<dc:title/>
</cc:Work>
</rdf:RDF>
</metadata>
<rect ry="8" height="64" width="64" y="0" x="0" fill="#808080"/>
<text style="letter-spacing:0px;text-anchor:middle;word-spacing:0px;text-align:center;" font-weight="normal" xml:space="preserve" transform="matrix(0,1,-1,0,0,0)" font-style="normal" font-stretch="normal" font-size="36px" font-variant="normal" y="-21.998047" x="33" font-family="Droid Sans" line-height="125%" fill="#ffffff"><tspan x="33" y="-21.998047">}</tspan></text>
<path id="use4244" fill="#FFF" d="m14,8c-1.11,0-2,0.892-2,2v4c0,1.11,0.892,2,2,2h1.41l0.375-2.09h-1.41v-1.22h1.62l0.281-1.34h-1.47v-1.25h1.69l0.4-2.2h-2.9zm4.19,0-0.406,2.09,1.16,0l0.3-2.1h-1.1zm2.41,0-0.375,2.09,1.41,0,0,1.25-1.66,0-0.281,1.34,1.53,0,0,1.22-1.75,0l-0.3,2.1h2.9c1.11,0,2-0.892,2-2v-4c0-1.11-0.9-2-2-2h-1.41zm-3.03,3.34-0.281,1.34,1.16,0,0.281-1.34-1.16,0zm-0.5,2.56l-0.4,2.1h1.12l0.406-2.09h-1.12z"/>
<use id="use4278" xlink:href="#use4244" transform="translate(0,10)" height="64" width="64" y="0" x="0"/>
<use xlink:href="#use4244" transform="translate(28,0)" height="64" width="64" y="0" x="0"/>
<use xlink:href="#use4278" transform="translate(28,0)" height="64" width="64" y="0" x="0"/>
<path d="M25,56a9,9,0,1,1,-18,0,9,9,0,1,1,18,0z" transform="translate(12,-6)" stroke-dashoffset="0" stroke="#FFF" stroke-linecap="square" stroke-miterlimit="4" stroke-dasharray="none" stroke-width="2" fill="#808080"/>
<path d="M25,56a9,9,0,1,1,-18,0,9,9,0,1,1,18,0z" transform="translate(20,-6)" stroke-dashoffset="0" stroke="#FFF" stroke-linecap="square" stroke-miterlimit="4" stroke-dasharray="none" stroke-width="2" fill="none"/>
<path fill="#FFF" d="m28,41c-4.97,0-9,4.03-9,9s4.03,9,9,9c1.44,0,2.79-0.365,4-0.969-3-1.4-5-4.5-5-8s2-6.6,5-8c-1.2-0.6-2.6-1-4-1z"/>
</svg>
