<!-- Created with Inkscape (http://www.inkscape.org/) -->
<svg xmlns:rdf="http://www.w3.org/1999/02/22-rdf-syntax-ns#" xmlns="http://www.w3.org/2000/svg" height="64px" width="64px" version="1.1" xmlns:cc="http://creativecommons.org/ns#" xmlns:xlink="http://www.w3.org/1999/xlink" xmlns:dc="http://purl.org/dc/elements/1.1/">
<metadata>
<rdf:RDF>
<cc:Work rdf:about="">
<dc:format>image/svg+xml</dc:format>
<dc:type rdf:resource="http://purl.org/dc/dcmitype/StillImage"/>
<dc:title/>
</cc:Work>
</rdf:RDF>
</metadata>
<rect ry="8" height="64" width="64" y="0" x="0" fill="#808080"/>
<rect id="use6459" ry="2" height="8" width="8" y="8" x="8" fill="#FFF"/>
<use id="use7890" xlink:href="#use6459" transform="translate(10,0)" height="64" width="64" y="0" x="0"/>
<use id="use7900" xlink:href="#use7890" transform="translate(10,0)" height="64" width="64" y="0" x="0"/>
<path id="use4244" fill="#FFF" d="m46,8c-1.11,0-2,0.892-2,2v4c0,1.11,0.892,2,2,2h1.41l0.375-2.09h-1.41v-1.22h1.62l0.281-1.34h-1.47v-1.25h1.69l0.4-2.2h-2.9zm4.19,0-0.406,2.09,1.16,0l0.3-2.1h-1.1zm2.41,0-0.375,2.09,1.41,0,0,1.25-1.66,0-0.281,1.34,1.53,0,0,1.22-1.75,0l-0.3,2.1h2.9c1.11,0,2-0.892,2-2v-4c0-1.11-0.9-2-2-2h-1.41zm-3.03,3.34-0.281,1.34,1.16,0,0.281-1.34-1.16,0zm-0.5,2.56l-0.4,2.1h1.12l0.406-2.09h-1.12z"/>
<path id="path6521" d="m43,12-3-3,0,2-2,0,0,2,2,0,0,2z" fill="#FFF"/>
<use xlink:href="#use6459" transform="translate(0,10)" height="64" width="64" y="0" x="0"/>
<use xlink:href="#use7890" transform="translate(0,10)" height="64" width="64" y="0" x="0"/>
<use xlink:href="#use7900" transform="translate(0,10)" height="64" width="64" y="0" x="0"/>
<use xlink:href="#use4244" transform="translate(0,10)" height="64" width="64" y="0" x="0"/>
<use xlink:href="#path6521" transform="translate(0,10)" height="64" width="64" y="0" x="0"/>
<use xlink:href="#use6459" transform="translate(0,20)" height="64" width="64" y="0" x="0"/>
<use xlink:href="#use7890" transform="translate(0,20)" height="64" width="64" y="0" x="0"/>
<use xlink:href="#use7900" transform="translate(0,20)" height="64" width="64" y="0" x="0"/>
<use xlink:href="#use4244" transform="translate(0,20)" height="64" width="64" y="0" x="0"/>
<use xlink:href="#path6521" transform="translate(0,20)" height="64" width="64" y="0" x="0"/>
<use xlink:href="#use6459" transform="translate(0,30)" height="64" width="64" y="0" x="0"/>
<use xlink:href="#use7890" transform="translate(0,30)" height="64" width="64" y="0" x="0"/>
<use xlink:href="#use7900" transform="translate(0,30)" height="64" width="64" y="0" x="0"/>
<use xlink:href="#use4244" transform="translate(0,30)" height="64" width="64" y="0" x="0"/>
<use xlink:href="#path6521" transform="translate(0,30)" height="64" width="64" y="0" x="0"/>
<use xlink:href="#use6459" transform="translate(0,40)" height="64" width="64" y="0" x="0"/>
<use xlink:href="#use7890" transform="translate(0,40)" height="64" width="64" y="0" x="0"/>
<use xlink:href="#use7900" transform="translate(0,40)" height="64" width="64" y="0" x="0"/>
<use xlink:href="#use4244" transform="translate(0,40)" height="64" width="64" y="0" x="0"/>
<use xlink:href="#path6521" transform="translate(0,40)" height="64" width="64" y="0" x="0"/>
</svg>
