<!-- Created with Inkscape (http://www.inkscape.org/) -->
<svg xmlns:rdf="http://www.w3.org/1999/02/22-rdf-syntax-ns#" xmlns="http://www.w3.org/2000/svg" height="64px" width="64px" version="1.1" xmlns:cc="http://creativecommons.org/ns#" xmlns:xlink="http://www.w3.org/1999/xlink" xmlns:dc="http://purl.org/dc/elements/1.1/">
<metadata>
<rdf:RDF>
<cc:Work rdf:about="">
<dc:format>image/svg+xml</dc:format>
<dc:type rdf:resource="http://purl.org/dc/dcmitype/StillImage"/>
<dc:title/>
</cc:Work>
</rdf:RDF>
</metadata>
<rect ry="8" height="64" width="64" y="0" x="0" fill="#808080"/>
<rect id="use6459" ry="2" height="8" width="12" y="8" x="16" fill="#FFF"/>
<use id="use7890" xlink:href="#use6459" transform="translate(18,0)" height="64" width="64" y="0" x="0"/>
<use id="use7900" xlink:href="#use7890" transform="translate(14,0)" height="64" width="64" y="0" x="0"/>
<text id="text8823" style="letter-spacing:0px;word-spacing:0px;" font-weight="normal" xml:space="preserve" font-size="14px" font-stretch="normal" line-height="125%" font-variant="normal" y="16" x="3" font-family="Droid Sans" font-style="normal" fill="#ffffff"><tspan x="3" y="16">#(</tspan></text>
<text id="text8831" style="letter-spacing:0px;word-spacing:0px;" font-weight="normal" font-variant="normal" font-size="14px" font-stretch="normal" line-height="125%" font-style="normal" y="16" x="28" font-family="Droid Sans" xml:space="preserve" fill="#ffffff"><tspan y="16" x="28">)</tspan></text>
<use id="use8868" xlink:href="#use6459" transform="translate(0,12)" height="64" width="64" y="0" x="0"/>
<use id="use8870" xlink:href="#use7890" transform="translate(0,12)" height="64" width="64" y="0" x="0"/>
<use id="use8872" xlink:href="#use7900" transform="translate(0,12)" height="64" width="64" y="0" x="0"/>
<use id="use8874" xlink:href="#text8823" transform="translate(0,12)" height="64" width="64" y="0" x="0"/>
<use id="use8876" xlink:href="#text8831" transform="translate(0,12)" height="64" width="64" y="0" x="0"/>
<use xlink:href="#use8868" transform="translate(0,12)" height="64" width="64" y="0" x="0"/>
<use xlink:href="#use8870" transform="translate(0,12)" height="64" width="64" y="0" x="0"/>
<use xlink:href="#use8872" transform="translate(0,12)" height="64" width="64" y="0" x="0"/>
<use xlink:href="#use8874" transform="translate(0,12)" height="64" width="64" y="0" x="0"/>
<use xlink:href="#use8876" transform="translate(0,12)" height="64" width="64" y="0" x="0"/>
<text style="letter-spacing:0px;text-anchor:middle;word-spacing:0px;text-align:center;" font-weight="normal" xml:space="preserve" transform="matrix(0,1,-1,0,0,0)" font-style="normal" font-stretch="normal" font-size="48px" font-variant="normal" y="-18.664062" x="51" font-family="Droid Sans" line-height="125%" fill="#ffffff"><tspan x="51" y="-18.664062">}</tspan></text>
</svg>
