<!-- Created with Inkscape (http://www.inkscape.org/) -->
<svg xmlns:rdf="http://www.w3.org/1999/02/22-rdf-syntax-ns#" xmlns="http://www.w3.org/2000/svg" height="64px" width="64px" version="1.1" xmlns:cc="http://creativecommons.org/ns#" xmlns:xlink="http://www.w3.org/1999/xlink" xmlns:dc="http://purl.org/dc/elements/1.1/">
<metadata>
<rdf:RDF>
<cc:Work rdf:about="">
<dc:format>image/svg+xml</dc:format>
<dc:type rdf:resource="http://purl.org/dc/dcmitype/StillImage"/>
<dc:title/>
</cc:Work>
</rdf:RDF>
</metadata>
<rect ry="8" height="64" width="64" y="0" x="0" fill="#808080"/>
<rect id="rect6441" ry="2" height="8" width="12" y="8" x="28" fill="#FFF"/>
<use id="use6453" xlink:href="#rect6441" transform="translate(0,10)" height="64" width="64" y="0" x="0"/>
<use xlink:href="#use6453" transform="translate(0,10)" height="64" width="64" y="0" x="0"/>
<path fill="#FFF" d="m18,56,6-4-4,0,0-44-4,0,0,44-4,0z"/>
<use xlink:href="#rect6441" transform="translate(0,30)" height="64" width="64" y="0" x="0"/>
<use xlink:href="#rect6441" transform="translate(0,40)" height="64" width="64" y="0" x="0"/>
<path id="path6521" d="m49,11-3-3,0,2-4,0,0,2,4,0,0,2z" fill="#FFF"/>
<use xlink:href="#path6521" transform="translate(0,10)" height="64" width="64" y="0" x="0"/>
<use xlink:href="#path6521" transform="translate(0,20)" height="64" width="64" y="0" x="0"/>
<use xlink:href="#path6521" transform="translate(0,30)" height="64" width="64" y="0" x="0"/>
<use xlink:href="#path6521" transform="translate(0,40)" height="64" width="64" y="0" x="0"/>
</svg>
