<!-- Created with Inkscape (http://www.inkscape.org/) -->
<svg xmlns:rdf="http://www.w3.org/1999/02/22-rdf-syntax-ns#" xmlns="http://www.w3.org/2000/svg" height="64px" width="64px" version="1.1" xmlns:cc="http://creativecommons.org/ns#" xmlns:xlink="http://www.w3.org/1999/xlink" xmlns:dc="http://purl.org/dc/elements/1.1/">
<metadata>
<rdf:RDF>
<cc:Work rdf:about="">
<dc:format>image/svg+xml</dc:format>
<dc:type rdf:resource="http://purl.org/dc/dcmitype/StillImage"/>
<dc:title/>
</cc:Work>
</rdf:RDF>
</metadata>
<rect ry="8" height="64" width="64" y="0" x="0" fill="#808080"/>
<path id="rect6441" fill="#FFF" d="m20,8c-1.11,0-2,0.892-2,2v4c0,1.11,0.892,2,2,2h8c1.11,0,2-0.892,2-2v-4c0-1.11-0.9-2-2-2h-8zm5,1,3,3-3,3,0-2-4,0,0-2,4,0,0-2z"/>
<use id="use6453" xlink:href="#rect6441" transform="translate(0,10)" height="64" width="64" y="0" x="0"/>
<use xlink:href="#use6453" transform="translate(0,10)" height="64" width="64" y="0" x="0"/>
<path fill="#FFF" d="M10,56,16,52,12,52,12,8,8,8,8,52,4,52z"/>
<use xlink:href="#rect6441" transform="translate(0,30)" height="64" width="64" y="0" x="0"/>
<use xlink:href="#rect6441" transform="translate(0,40)" height="64" width="64" y="0" x="0"/>
<path id="path6461" fill="#FFF" d="m39,12-3-3,0,2-4,0,0,2,4,0,0,2z"/>
<use xlink:href="#path6461" transform="translate(0,10)" height="64" width="64" y="0" x="0"/>
<use xlink:href="#path6461" transform="translate(0,20)" height="64" width="64" y="0" x="0"/>
<use xlink:href="#path6461" transform="translate(0,30)" height="64" width="64" y="0" x="0"/>
<use xlink:href="#path6461" transform="translate(0,40)" height="64" width="64" y="0" x="0"/>
<rect id="use6459" ry="2" height="8" width="8" y="8" x="40" fill="#FFF"/>
<use id="use7890" xlink:href="#use6459" transform="translate(10,0)" height="64" width="64" y="0" x="0"/>
<use xlink:href="#use6459" transform="translate(0,10)" height="64" width="64" y="0" x="0"/>
<use xlink:href="#use7890" transform="translate(0,10)" height="64" width="64" y="0" x="0"/>
<use xlink:href="#use6459" transform="translate(0,20)" height="64" width="64" y="0" x="0"/>
<use xlink:href="#use7890" transform="translate(0,20)" height="64" width="64" y="0" x="0"/>
<use xlink:href="#use6459" transform="translate(0,30)" height="64" width="64" y="0" x="0"/>
<use xlink:href="#use7890" transform="translate(0,30)" height="64" width="64" y="0" x="0"/>
<use xlink:href="#use6459" transform="translate(0,40)" height="64" width="64" y="0" x="0"/>
<use xlink:href="#use7890" transform="translate(0,40)" height="64" width="64" y="0" x="0"/>
</svg>
