<!-- Created with Inkscape (http://www.inkscape.org/) -->
<svg xmlns:rdf="http://www.w3.org/1999/02/22-rdf-syntax-ns#" xmlns="http://www.w3.org/2000/svg" height="64px" width="64px" version="1.1" xmlns:cc="http://creativecommons.org/ns#" xmlns:xlink="http://www.w3.org/1999/xlink" xmlns:dc="http://purl.org/dc/elements/1.1/">
<defs></defs>
<metadata>
<rdf:RDF>
<cc:Work rdf:about="">
<dc:format>image/svg+xml</dc:format>
<dc:type rdf:resource="http://purl.org/dc/dcmitype/StillImage"/>
<dc:title/>
</cc:Work>
</rdf:RDF>
</metadata>
<rect ry="8" height="64" width="64" y="0" x="0" fill="#808080"/>
<path stroke-linejoin="miter" style="marker-end:none;" d="m10,28,0-6c0-6,6-12,12-12h20c6,0,12,6,12,12v20c0,6-6,12-12,12h-20c-6,0-12-6-12-12v-6" stroke="#FFF" stroke-linecap="butt" stroke-miterlimit="4" stroke-dasharray="none" stroke-width="4" fill="none"/>
<path stroke-linejoin="miter" style="marker-end:none;" d="m46,36,0,2c0,4-4,8-8,8h-12c-4,0-8-4-8-8v-12c0-4,4-8,8-8h12c4,0,8,4,8,8v2" stroke="#FFF" stroke-linecap="butt" stroke-miterlimit="4" stroke-dasharray="none" stroke-width="4" fill="none"/>
<path id="path7845" fill="#FFF" d="m6,38,4-6,4,6z"/>
<use xlink:href="#path7845" transform="matrix(-1,0,0,-1,56,64)" height="64" width="64" y="0" x="0"/>
</svg>
