<!-- Created with Inkscape (http://www.inkscape.org/) -->
<svg xmlns:rdf="http://www.w3.org/1999/02/22-rdf-syntax-ns#" xmlns="http://www.w3.org/2000/svg" height="64px" width="64px" version="1.1" xmlns:cc="http://creativecommons.org/ns#" xmlns:xlink="http://www.w3.org/1999/xlink" xmlns:dc="http://purl.org/dc/elements/1.1/">
<metadata>
<rdf:RDF>
<cc:Work rdf:about="">
<dc:format>image/svg+xml</dc:format>
<dc:type rdf:resource="http://purl.org/dc/dcmitype/StillImage"/>
<dc:title/>
</cc:Work>
</rdf:RDF>
</metadata>
<rect ry="8" height="64" width="64" y="0" x="0" fill="#808080"/>
<rect id="rect6441" ry="2" height="8" width="12" y="32" x="12" fill="#FFF"/>
<use id="use6443" xlink:href="#rect6441" transform="translate(14,0)" height="64" width="64" y="0" x="0"/>
<use id="use6451" xlink:href="#rect6441" transform="translate(28,0)" height="64" width="64" y="0" x="0"/>
<use id="use6453" xlink:href="#rect6441" transform="translate(0,10)" height="64" width="64" y="0" x="0"/>
<use id="use6455" xlink:href="#use6443" transform="translate(0,10)" height="64" width="64" y="0" x="0"/>
<use id="use6457" xlink:href="#use6451" transform="translate(0,10)" height="64" width="64" y="0" x="0"/>
<use xlink:href="#use6453" transform="translate(0,10)" height="64" width="64" y="0" x="0"/>
<use xlink:href="#use6455" transform="translate(0,10)" height="64" width="64" y="0" x="0"/>
<use xlink:href="#use6457" transform="translate(0,10)" height="64" width="64" y="0" x="0"/>
<text style="letter-spacing:0px;text-anchor:middle;word-spacing:0px;text-align:center;" font-weight="normal" xml:space="preserve" font-size="20px" font-style="normal" font-stretch="normal" font-variant="normal" y="17" x="32" font-family="Droid Sans" line-height="125%" fill="#ffffff"><tspan x="32" y="17">ğ’‡()</tspan></text>
<text style="letter-spacing:0px;text-anchor:middle;word-spacing:0px;text-align:center;" font-weight="normal" xml:space="preserve" transform="matrix(0,1,-1,0,0,0)" font-style="normal" font-stretch="normal" font-size="32px" font-variant="normal" y="-23.109375" x="26" font-family="Droid Sans" line-height="125%" fill="#ffffff"><tspan x="26" y="-23.109375">{</tspan></text>
</svg>
