<!-- Created with Inkscape (http://www.inkscape.org/) -->
<svg xmlns:rdf="http://www.w3.org/1999/02/22-rdf-syntax-ns#" xmlns="http://www.w3.org/2000/svg" height="64px" width="64px" version="1.1" xmlns:cc="http://creativecommons.org/ns#" xmlns:xlink="http://www.w3.org/1999/xlink" xmlns:dc="http://purl.org/dc/elements/1.1/">
<metadata>
<rdf:RDF>
<cc:Work rdf:about="">
<dc:format>image/svg+xml</dc:format>
<dc:type rdf:resource="http://purl.org/dc/dcmitype/StillImage"/>
<dc:title/>
</cc:Work>
</rdf:RDF>
</metadata>
<rect ry="8" height="64" width="64" y="0" x="0" fill="#808080"/>
<rect id="rect6441" ry="2" height="8" width="12" y="8" x="18" fill="#FFF"/>
<use id="use6453" xlink:href="#rect6441" transform="translate(0,10)" height="64" width="64" y="0" x="0"/>
<use id="use6459" xlink:href="#use6453" transform="translate(0,10)" height="64" width="64" y="0" x="0"/>
<path fill="#FFF" d="M10,56,16,52,12,52,12,8,8,8,8,52,4,52z"/>
<use id="use6517" xlink:href="#rect6441" transform="translate(0,30)" height="64" width="64" y="0" x="0"/>
<use id="use6519" xlink:href="#rect6441" transform="translate(0,40)" height="64" width="64" y="0" x="0"/>
<use id="use7886" xlink:href="#rect6441" transform="translate(14,0)" height="64" width="64" y="0" x="0"/>
<use id="use7888" xlink:href="#use6453" transform="translate(14,0)" height="64" width="64" y="0" x="0"/>
<use id="use7890" xlink:href="#use6459" transform="translate(14,0)" height="64" width="64" y="0" x="0"/>
<use id="use7892" xlink:href="#use6517" transform="translate(14,0)" height="64" width="64" y="0" x="0"/>
<use id="use7894" xlink:href="#use6519" transform="translate(14,0)" height="64" width="64" y="0" x="0"/>
<use xlink:href="#use7886" transform="translate(14,0)" height="64" width="64" y="0" x="0"/>
<use xlink:href="#use7888" transform="translate(14,0)" height="64" width="64" y="0" x="0"/>
<use xlink:href="#use7890" transform="translate(14,0)" height="64" width="64" y="0" x="0"/>
<use xlink:href="#use7892" transform="translate(14,0)" height="64" width="64" y="0" x="0"/>
<use xlink:href="#use7894" transform="translate(14,0)" height="64" width="64" y="0" x="0"/>
</svg>
