<!-- Created with Inkscape (http://www.inkscape.org/) -->
<svg xmlns:rdf="http://www.w3.org/1999/02/22-rdf-syntax-ns#" xmlns="http://www.w3.org/2000/svg" height="64px" width="64px" version="1.1" xmlns:cc="http://creativecommons.org/ns#" xmlns:xlink="http://www.w3.org/1999/xlink" xmlns:dc="http://purl.org/dc/elements/1.1/">
<metadata>
<rdf:RDF>
<cc:Work rdf:about="">
<dc:format>image/svg+xml</dc:format>
<dc:type rdf:resource="http://purl.org/dc/dcmitype/StillImage"/>
<dc:title/>
</cc:Work>
</rdf:RDF>
</metadata>
<rect ry="8" height="64" width="64" y="0" x="0" fill="#808080"/>
<rect id="rect6441" ry="2" height="8" width="12" y="8" x="38" fill="#FFF"/>
<use id="use6453" xlink:href="#rect6441" transform="translate(0,10)" height="64" width="64" y="0" x="0"/>
<use id="use6459" xlink:href="#use6453" transform="translate(0,10)" height="64" width="64" y="0" x="0"/>
<use id="use6517" xlink:href="#rect6441" transform="translate(0,30)" height="64" width="64" y="0" x="0"/>
<use id="use6519" xlink:href="#rect6441" transform="translate(0,40)" height="64" width="64" y="0" x="0"/>
<path id="path6521" d="m36,12-3-3,0,2-4,0,0,2,4,0,0,2z" fill="#FFF"/>
<use xlink:href="#path6521" transform="translate(0,10)" height="64" width="64" y="0" x="0"/>
<use xlink:href="#path6521" transform="translate(0,20)" height="64" width="64" y="0" x="0"/>
<use xlink:href="#path6521" transform="translate(0,30)" height="64" width="64" y="0" x="0"/>
<use xlink:href="#path6521" transform="translate(0,40)" height="64" width="64" y="0" x="0"/>
<use xlink:href="#rect6441" transform="translate(-24,0)" height="64" width="64" y="0" x="0"/>
<use xlink:href="#use6453" transform="translate(-24,0)" height="64" width="64" y="0" x="0"/>
<use xlink:href="#use6459" transform="translate(-24,0)" height="64" width="64" y="0" x="0"/>
<use xlink:href="#use6517" transform="translate(-24,0)" height="64" width="64" y="0" x="0"/>
<use xlink:href="#use6519" transform="translate(-24,0)" height="64" width="64" y="0" x="0"/>
<rect id="use8742" ry="0" height="2" width="2" y="20" x="40" fill="#808080"/>
<use id="use8744" xlink:href="#use8742" transform="translate(-21,-10)" height="64" width="64" y="0" x="0"/>
<use id="use8746" xlink:href="#use8744" transform="translate(3,0)" height="64" width="64" y="0" x="0"/>
<use xlink:href="#use8744" transform="translate(24,30)" height="64" width="64" y="0" x="0"/>
<use id="use8752" xlink:href="#use8746" transform="translate(24,30)" height="64" width="64" y="0" x="0"/>
<rect id="use8754" ry="0" height="2" width="2" y="30" x="40" fill="#808080"/>
<use id="use8756" xlink:href="#use8744" transform="translate(24,20)" height="64" width="64" y="0" x="0"/>
<use id="use8762" xlink:href="#use8752" transform="translate(0,10)" height="64" width="64" y="0" x="0"/>
<rect id="rect8768" ry="0" height="4" width="2" y="10" x="16" fill="#808080"/>
<use xlink:href="#rect8768" transform="translate(24,30)" height="64" width="64" y="0" x="0"/>
<use id="use8782" xlink:href="#rect8768" transform="translate(24,40)" height="64" width="64" y="0" x="0"/>
<use id="use8784" xlink:href="#rect8768" transform="translate(27,40)" height="64" width="64" y="0" x="0"/>
<use xlink:href="#use8762" transform="translate(-24,-20)" height="64" width="64" y="0" x="0"/>
<use xlink:href="#use8782" transform="translate(-24,-20)" height="64" width="64" y="0" x="0"/>
<use xlink:href="#use8784" transform="translate(-24,-20)" height="64" width="64" y="0" x="0"/>
<use xlink:href="#use8754" transform="translate(-24,20)" height="64" width="64" y="0" x="0"/>
<use xlink:href="#use8756" transform="translate(-24,20)" height="64" width="64" y="0" x="0"/>
<use xlink:href="#use8742" transform="translate(-24,0)" height="64" width="64" y="0" x="0"/>
</svg>
